<svg width="141" height="140" viewBox="0 0 141 140" fill="none" xmlns="http://www.w3.org/2000/svg">
<g clip-path="url(#clip0_32_156)">
<circle cx="70.4733" cy="70.0152" r="68.8842" fill="white" stroke="#005342" stroke-width="1.6733"/>
<path d="M108.858 35.8772C104.158 34.3953 98.9928 33.7603 94.0391 33.7603C85.7828 33.7603 76.8915 35.4538 70.7523 40.1112C64.613 35.4538 55.7217 33.7603 47.4655 33.7603C39.2093 33.7603 30.318 35.4538 24.1787 40.1112V102.139C24.1787 103.197 25.2372 104.256 26.2957 104.256C26.7191 104.256 26.9308 104.044 27.3542 104.044C33.07 101.292 41.3263 99.3866 47.4655 99.3866C55.7217 99.3866 64.613 101.08 70.7523 105.738C76.4681 102.139 86.8413 99.3866 94.0391 99.3866C101.025 99.3866 108.223 100.657 114.15 103.832C114.574 104.044 114.785 104.044 115.209 104.044C116.267 104.044 117.326 102.986 117.326 101.927V40.1112C114.785 38.2059 112.033 36.9357 108.858 35.8772ZM108.858 93.0357C104.201 91.5538 99.1198 90.9187 94.0391 90.9187C86.8413 90.9187 76.4681 93.6708 70.7523 97.2697V48.5791C76.4681 44.9802 86.8413 42.2282 94.0391 42.2282C99.1198 42.2282 104.201 42.8633 108.858 44.3452V93.0357Z" fill="#005342"/>
<path d="M94.0391 59.1641C97.765 59.1641 101.364 59.5451 104.624 60.2649V53.8293C101.279 53.1942 97.6804 52.8131 94.0391 52.8131C86.8414 52.8131 80.3211 54.041 74.9863 56.3273V63.3557C79.7707 60.6459 86.418 59.1641 94.0391 59.1641Z" fill="#005342"/>
<path d="M74.9863 67.5896V74.618C79.7707 71.9083 86.418 70.4264 94.0391 70.4264C97.765 70.4264 101.364 70.8074 104.624 71.5272V65.0916C101.279 64.4565 97.6804 64.0754 94.0391 64.0754C86.8414 64.0754 80.3211 65.3456 74.9863 67.5896Z" fill="#005342"/>
<path d="M94.0391 75.3801C86.8414 75.3801 80.3211 76.608 74.9863 78.8943V85.9227C79.7707 83.213 86.418 81.7311 94.0391 81.7311C97.765 81.7311 101.364 82.1121 104.624 82.8319V76.3963C101.279 75.7188 97.6804 75.3801 94.0391 75.3801Z" fill="#005342"/>
</g>
<defs>
<clipPath id="clip0_32_156">
<rect width="139.442" height="139.442" fill="white" transform="translate(0.752441 0.29425)"/>
</clipPath>
</defs>
</svg>
